<svg width="179" height="45" viewBox="0 0 179 45" fill="none" xmlns="http://www.w3.org/2000/svg"><path d="M164.938 21.44C164.991 19.8133 165.404 18.36 166.178 17.08C166.978 15.8 168.031 14.7867 169.338 14.04C170.644 13.2933 172.084 12.92 173.658 12.92C175.124 12.92 176.218 13.1467 176.938 13.6C177.684 14.0533 177.964 14.6267 177.778 15.32C177.698 15.72 177.538 16.0133 177.298 16.2C177.058 16.36 176.778 16.4533 176.458 16.48C176.138 16.48 175.791 16.4533 175.418 16.4C173.791 16.1333 172.338 16.1733 171.058 16.52C169.778 16.8667 168.764 17.4667 168.018 18.32C167.271 19.1733 166.898 20.2133 166.898 21.44H164.938ZM165.058 35.04C164.498 35.04 164.058 34.8933 163.738 34.6C163.418 34.28 163.258 33.8267 163.258 33.24V14.96C163.258 14.4 163.418 13.96 163.738 13.64C164.058 13.32 164.498 13.16 165.058 13.16C165.671 13.16 166.124 13.32 166.418 13.64C166.738 13.9333 166.898 14.3733 166.898 14.96V33.24C166.898 33.8 166.738 34.24 166.418 34.56C166.124 34.88 165.671 35.04 165.058 35.04Z" fill="white"/><path d="M148.691 35.2C146.478 35.2 144.518 34.7333 142.811 33.8C141.131 32.84 139.811 31.5333 138.851 29.88C137.891 28.2 137.411 26.28 137.411 24.12C137.411 21.9333 137.865 20.0133 138.771 18.36C139.678 16.68 140.931 15.3733 142.531 14.44C144.131 13.48 145.985 13 148.091 13C150.145 13 151.918 13.4667 153.411 14.4C154.905 15.3067 156.051 16.5733 156.851 18.2C157.651 19.8 158.051 21.6533 158.051 23.76C158.051 24.2133 157.891 24.6 157.571 24.92C157.278 25.2133 156.878 25.36 156.371 25.36H145.411C144.594 25.36 143.931 24.6974 143.931 23.88V23.88C143.931 23.0626 144.594 22.4 145.411 22.4H155.156C155.545 22.4 155.704 22.9001 155.386 23.1249V23.1249C155.125 23.3098 154.76 23.1267 154.732 22.8076C154.635 21.6933 154.368 20.6774 153.931 19.76C153.398 18.64 152.638 17.76 151.651 17.12C150.665 16.48 149.478 16.16 148.091 16.16C146.571 16.16 145.251 16.5067 144.131 17.2C143.038 17.8933 142.198 18.84 141.611 20.04C141.025 21.24 140.731 22.6 140.731 24.12C140.731 25.64 141.065 27 141.731 28.2C142.425 29.3733 143.358 30.3067 144.531 31C145.731 31.6933 147.118 32.04 148.691 32.04C149.545 32.04 150.425 31.88 151.331 31.56C152.265 31.24 152.998 30.8667 153.531 30.44C153.905 30.1467 154.305 30 154.731 30C155.158 29.9733 155.531 30.0933 155.851 30.36C156.251 30.7333 156.465 31.1467 156.491 31.6C156.518 32.0267 156.331 32.4 155.931 32.72C155.025 33.44 153.891 34.04 152.531 34.52C151.198 34.9733 149.918 35.2 148.691 35.2ZM147.731 9.76C147.225 9.76 146.785 9.58667 146.411 9.24C146.065 8.86667 145.891 8.42667 145.891 7.92C145.891 7.41333 146.038 7 146.331 6.68L150.491 2.52C150.838 2.17333 151.265 2 151.771 2C152.331 2 152.785 2.18667 153.131 2.56C153.478 2.90667 153.651 3.34667 153.651 3.88C153.651 4.12 153.611 4.34667 153.531 4.56C153.451 4.77333 153.318 4.97333 153.131 5.16L149.011 9.28C148.691 9.6 148.265 9.76 147.731 9.76Z" fill="white"/><path d="M129.016 35.04C128.456 35.04 128.003 34.8667 127.656 34.52C127.31 34.1733 127.136 33.7333 127.136 33.2V15C127.136 14.44 127.31 14 127.656 13.68C128.003 13.3333 128.456 13.16 129.016 13.16C129.55 13.16 129.99 13.3333 130.336 13.68C130.683 14 130.856 14.44 130.856 15V33.2C130.856 33.7333 130.683 34.1733 130.336 34.52C129.99 34.8667 129.55 35.04 129.016 35.04ZM128.976 9.36C128.31 9.36 127.736 9.12 127.256 8.64C126.776 8.16 126.536 7.57334 126.536 6.88C126.536 6.18667 126.776 5.61334 127.256 5.16C127.763 4.68 128.35 4.44 129.016 4.44C129.656 4.44 130.216 4.68 130.696 5.16C131.203 5.61334 131.456 6.18667 131.456 6.88C131.456 7.57334 131.216 8.16 130.736 8.64C130.256 9.12 129.67 9.36 128.976 9.36Z" fill="white"/><path d="M119.937 35.04C118.817 35.04 117.817 34.7333 116.937 34.12C116.057 33.5067 115.364 32.6667 114.857 31.6C114.377 30.5067 114.137 29.2533 114.137 27.84V5.6C114.137 5.06667 114.297 4.64 114.617 4.32C114.964 3.97334 115.404 3.8 115.937 3.8C116.497 3.8 116.937 3.97334 117.257 4.32C117.604 4.64 117.777 5.06667 117.777 5.6V27.84C117.777 28.88 117.977 29.7333 118.377 30.4C118.804 31.0667 119.324 31.4 119.937 31.4H120.937C121.444 31.4 121.844 31.5733 122.137 31.92C122.431 32.24 122.577 32.68 122.577 33.24C122.577 33.7733 122.351 34.2133 121.897 34.56C121.471 34.88 120.911 35.04 120.217 35.04H119.937Z" fill="white"/><path d="M88.5744 44.4C88.041 44.4 87.601 44.2267 87.2544 43.88C86.9077 43.5333 86.7344 43.0933 86.7344 42.56V24.04C86.761 21.96 87.2544 20.08 88.2144 18.4C89.201 16.72 90.521 15.4 92.1744 14.44C93.8277 13.48 95.6944 13 97.7744 13C99.881 13 101.761 13.4933 103.414 14.48C105.094 15.44 106.414 16.76 107.374 18.44C108.361 20.0933 108.854 21.9867 108.854 24.12C108.854 26.2267 108.388 28.12 107.454 29.8C106.548 31.48 105.308 32.8 103.734 33.76C102.161 34.72 100.388 35.2 98.4144 35.2C96.7344 35.2 95.2144 34.8533 93.8544 34.16C92.4944 33.4667 91.3477 32.5333 90.4144 31.36V42.56C90.4144 43.0933 90.241 43.5333 89.8944 43.88C89.5744 44.2267 89.1344 44.4 88.5744 44.4ZM97.7744 31.92C99.1877 31.92 100.454 31.5867 101.574 30.92C102.721 30.2267 103.614 29.2933 104.254 28.12C104.921 26.92 105.254 25.5867 105.254 24.12C105.254 22.6267 104.921 21.2933 104.254 20.12C103.614 18.92 102.721 17.9867 101.574 17.32C100.454 16.6267 99.1877 16.28 97.7744 16.28C96.361 16.28 95.081 16.6267 93.9344 17.32C92.8144 18.0133 91.9344 18.9467 91.2944 20.12C90.6544 21.2933 90.3344 22.6267 90.3344 24.12C90.3344 25.5867 90.6544 26.92 91.2944 28.12C91.9344 29.2933 92.8144 30.2267 93.9344 30.92C95.081 31.5867 96.361 31.92 97.7744 31.92Z" fill="white"/><path d="M78.1181 35.08C77.5848 35.08 77.1448 34.9067 76.7981 34.56C76.4515 34.2133 76.2781 33.7733 76.2781 33.24V21.76C76.2781 20 75.8248 18.6533 74.9181 17.72C74.0381 16.7867 72.8915 16.32 71.4781 16.32C69.9848 16.32 68.7581 16.84 67.7981 17.88C66.8648 18.8933 66.3981 20.2133 66.3981 21.84H63.2781C63.3048 20.08 63.6915 18.5333 64.4381 17.2C65.1848 15.8667 66.2248 14.8267 67.5581 14.08C68.8915 13.3333 70.3981 12.96 72.0781 12.96C73.6248 12.96 74.9848 13.3067 76.1581 14C77.3581 14.6933 78.2915 15.7067 78.9581 17.04C79.6248 18.3467 79.9581 19.92 79.9581 21.76V33.24C79.9581 33.7733 79.7848 34.2133 79.4381 34.56C79.1181 34.9067 78.6781 35.08 78.1181 35.08ZM50.9181 35.08C50.3848 35.08 49.9448 34.9067 49.5981 34.56C49.2515 34.2133 49.0781 33.7733 49.0781 33.24V15.04C49.0781 14.48 49.2515 14.04 49.5981 13.72C49.9448 13.3733 50.3848 13.2 50.9181 13.2C51.4781 13.2 51.9181 13.3733 52.2381 13.72C52.5848 14.04 52.7581 14.48 52.7581 15.04V33.24C52.7581 33.7733 52.5848 34.2133 52.2381 34.56C51.9181 34.9067 51.4781 35.08 50.9181 35.08ZM64.5581 35.08C64.0248 35.08 63.5848 34.9067 63.2381 34.56C62.8915 34.2133 62.7181 33.7733 62.7181 33.24V21.76C62.7181 20 62.2648 18.6533 61.3581 17.72C60.4781 16.7867 59.3315 16.32 57.9181 16.32C56.4248 16.32 55.1848 16.8267 54.1981 17.84C53.2381 18.8533 52.7581 20.1467 52.7581 21.72H50.3581C50.3848 20.0133 50.7448 18.5067 51.4381 17.2C52.1581 15.8667 53.1315 14.8267 54.3581 14.08C55.5848 13.3333 56.9715 12.96 58.5181 12.96C60.0648 12.96 61.4248 13.3067 62.5981 14C63.7981 14.6933 64.7315 15.7067 65.3981 17.04C66.0648 18.3467 66.3981 19.92 66.3981 21.76V33.24C66.3981 33.7733 66.2248 34.2133 65.8781 34.56C65.5581 34.9067 65.1181 35.08 64.5581 35.08Z" fill="white"/><path d="M34.5116 35.2C32.2982 35.2 30.3382 34.7333 28.6316 33.8C26.9516 32.84 25.6316 31.5333 24.6716 29.88C23.7116 28.2 23.2316 26.28 23.2316 24.12C23.2316 21.9333 23.6849 20.0133 24.5916 18.36C25.4982 16.68 26.7516 15.3733 28.3516 14.44C29.9516 13.48 31.8049 13 33.9116 13C35.9649 13 37.7382 13.4667 39.2316 14.4C40.7249 15.3067 41.8716 16.5733 42.6716 18.2C43.4716 19.8 43.8716 21.6533 43.8716 23.76C43.8716 24.2133 43.7116 24.6 43.3916 24.92C43.0982 25.2133 42.6982 25.36 42.1916 25.36H31.2316C30.4142 25.36 29.7516 24.6974 29.7516 23.88V23.88C29.7516 23.0626 30.4142 22.4 31.2316 22.4H40.9763C41.3655 22.4 41.5245 22.9001 41.2068 23.1249V23.1249C40.9453 23.3098 40.58 23.1267 40.5522 22.8076C40.4553 21.6933 40.1884 20.6774 39.7516 19.76C39.2182 18.64 38.4582 17.76 37.4716 17.12C36.4849 16.48 35.2982 16.16 33.9116 16.16C32.3916 16.16 31.0716 16.5067 29.9516 17.2C28.8582 17.8933 28.0182 18.84 27.4316 20.04C26.8449 21.24 26.5516 22.6 26.5516 24.12C26.5516 25.64 26.8849 27 27.5516 28.2C28.2449 29.3733 29.1782 30.3067 30.3516 31C31.5516 31.6933 32.9382 32.04 34.5116 32.04C35.3649 32.04 36.2449 31.88 37.1516 31.56C38.0849 31.24 38.8182 30.8667 39.3516 30.44C39.7249 30.1467 40.1249 30 40.5516 30C40.9782 29.9733 41.3516 30.0933 41.6716 30.36C42.0716 30.7333 42.2849 31.1467 42.3116 31.6C42.3382 32.0267 42.1516 32.4 41.7516 32.72C40.8449 33.44 39.7116 34.04 38.3516 34.52C37.0182 34.9733 35.7382 35.2 34.5116 35.2Z" fill="white"/><path d="M13.56 35.04C13.0533 35.04 12.6133 34.8667 12.24 34.52C11.8667 34.1467 11.68 33.6933 11.68 33.16V3.8H15.44V33.16C15.44 33.6933 15.2667 34.1467 14.92 34.52C14.5733 34.8667 14.12 35.04 13.56 35.04ZM2.71999 7.24C2.21333 7.24 1.79999 7.08 1.47999 6.76C1.15999 6.44 0.999992 6.02667 0.999992 5.52C0.999992 5.01334 1.15999 4.6 1.47999 4.28C1.79999 3.96 2.21333 3.8 2.71999 3.8H24.4C24.9333 3.8 25.36 3.96 25.68 4.28C26 4.6 26.16 5.01334 26.16 5.52C26.16 6.02667 26 6.44 25.68 6.76C25.36 7.08 24.9333 7.24 24.4 7.24H2.71999Z" fill="white"/></svg>